<svg width="23" height="23" viewBox="0 0 23 23" fill="none" xmlns="http://www.w3.org/2000/svg">
<path d="M18.5346 18.5217L20.3846 16.6666L22.2335 18.5217C22.5995 18.8885 22.8487 19.3559 22.9497 19.8648C23.0507 20.3736 22.9989 20.9011 22.8009 21.3805C22.603 21.8599 22.2677 22.2696 21.8375 22.5579C21.4073 22.8461 20.9015 23 20.3841 23C19.8667 23 19.3609 22.8461 18.9307 22.5579C18.5005 22.2696 18.1652 21.8599 17.9672 21.3805C17.7692 20.9011 17.7175 20.3736 17.8185 19.8648C17.9195 19.3559 18.1687 18.8885 18.5346 18.5217ZM7.70471 0L19.5433 11.8704C19.6406 11.9678 19.7178 12.0835 19.7704 12.2109C19.8231 12.3383 19.8502 12.4748 19.8502 12.6127C19.8502 12.7506 19.8231 12.8872 19.7704 13.0145C19.7178 13.1419 19.6406 13.2576 19.5433 13.3551L10.6649 22.2581C10.4687 22.4548 10.2026 22.5653 9.9251 22.5653C9.64764 22.5653 9.38154 22.4548 9.18532 22.2581L0.306886 13.3551C0.209598 13.2576 0.132419 13.1419 0.0797615 13.0145C0.0271037 12.8872 0 12.7506 0 12.6127C0 12.4748 0.0271037 12.3383 0.0797615 12.2109C0.132419 12.0835 0.209598 11.9678 0.306886 11.8704L8.44554 3.70916L6.22514 1.48367L7.7068 0H7.70471ZM9.9251 5.19388L2.52623 12.6122H17.3229L9.9251 5.19388Z" fill="#D0D0D0"/>
</svg>
