<svg width="22" height="21" viewBox="0 0 22 21" fill="none" xmlns="http://www.w3.org/2000/svg">
<path d="M13.8001 10.6456C14.0678 10.9146 14.0664 11.3496 13.7974 11.6173L5.28434 20.0891L5.16891 20.1998C3.9921 21.2668 2.19612 21.2669 1.02009 20.1992L0.90466 20.0891C0.325147 19.5066 -3.5916e-08 18.7178 0 17.8962C7.77803e-05 17.0746 0.325216 16.2864 0.90466 15.7039L9.38283 7.20185C9.65082 6.93327 10.0859 6.93261 10.3546 7.20051C10.6232 7.46844 10.6238 7.90347 10.3559 8.17217L1.87912 16.6729L1.76436 16.8004C1.51316 17.1085 1.37451 17.4952 1.37444 17.8962C1.37444 18.3546 1.55587 18.7944 1.87912 19.1195L2.00931 19.2382C2.68443 19.7917 3.68037 19.7526 4.31123 19.1195L4.31324 19.1175L12.8283 10.6436C13.0973 10.3759 13.5324 10.3766 13.8001 10.6456Z" fill="#D0D0D0"/>
<path d="M16.9923 13.6566C17.0876 13.6565 17.18 13.6299 17.2581 13.5811L17.3316 13.5247L20.4264 10.6234C20.5163 10.539 20.5669 10.4245 20.567 10.3052C20.567 10.1858 20.5164 10.0709 20.4264 9.98644L11.3478 1.47527C11.2577 1.39085 11.1351 1.34342 11.0077 1.34342C10.8805 1.3435 10.7584 1.39092 10.6684 1.47527L7.57362 4.37661L7.51345 4.44549C7.46143 4.51879 7.43302 4.60542 7.43298 4.69476C7.43298 4.81416 7.48358 4.92911 7.57362 5.01356L16.6522 13.5247C16.7423 13.6091 16.8649 13.6566 16.9923 13.6566ZM16.9923 15C16.4849 15 15.9978 14.8108 15.639 14.4746L6.56046 5.9634C6.20177 5.62703 6 5.17039 6 4.69476C6.00005 4.27875 6.15442 3.87769 6.43311 3.55862L6.56046 3.42677L9.65522 0.52543C10.0139 0.189232 10.5005 7.95301e-05 11.0077 0C11.5151 2.21763e-08 12.0022 0.189161 12.361 0.52543L21.4395 9.0366C21.7982 9.37297 22 9.82962 22 10.3052C21.9999 10.7808 21.7981 11.2369 21.4395 11.5732L18.3448 14.4746L18.2041 14.594C17.8638 14.8552 17.436 15 16.9923 15Z" fill="#D0D0D0"/>
</svg>
